<svg xmlns="http://www.w3.org/2000/svg" enable-background="new 0 0 512 512" viewBox="0 0 512 512" id="html-file"><path fill="#f60" fill-rule="evenodd" d="M168.579,0h173.378l153.1,153.07v293.997c0,35.729-29.233,64.933-64.933,64.933H168.579
		c-35.7,0-64.933-29.203-64.933-64.933V64.903C103.647,29.204,132.879,0,168.579,0L168.579,0z" clip-rule="evenodd"></path><path fill="#cc5100" fill-rule="evenodd" d="M341.958 0l153.1 153.07H358.491c-9.1 0-16.533-7.433-16.533-16.504V0zM31.193 218.003h352.638c7.842 0 14.251 6.408 14.251 14.251v129.368c0 7.842-6.408 14.28-14.251 14.28H31.193c-7.842 0-14.251-6.438-14.251-14.28V232.254C16.943 224.412 23.351 218.003 31.193 218.003L31.193 218.003z" clip-rule="evenodd"></path><path fill="#fff" d="M113.698,252.678v88.548c0,4.566-3.701,8.267-8.266,8.267c-4.566,0-8.267-3.701-8.267-8.267v-36.008H60.5
		v36.008c0,4.566-3.701,8.267-8.267,8.267s-8.266-3.701-8.266-8.267v-88.548c0-4.566,3.701-8.266,8.266-8.266
		s8.267,3.701,8.267,8.266v36.008h36.665v-36.008c0-4.566,3.701-8.266,8.267-8.266C109.997,244.412,113.698,248.113,113.698,252.678
		z M187.746,244.412h-53.228c-4.566,0-8.267,3.701-8.267,8.266s3.701,8.267,8.267,8.267h18.332v80.282
		c0,4.566,3.701,8.267,8.266,8.267s8.266-3.701,8.266-8.267v-80.282h18.363c4.566,0,8.267-3.701,8.267-8.267
		S192.312,244.412,187.746,244.412z M285.151,248.864c-0.518-0.997-1.246-1.901-2.171-2.64c-0.757-0.607-1.624-1.083-2.565-1.394
		c-1.024-0.341-2.09-0.469-3.143-0.4c-1.194,0.078-2.318,0.408-3.32,0.939c-0.976,0.515-1.862,1.233-2.589,2.141
		c-0.136,0.169-0.265,0.344-0.388,0.523l-24.147,34.5l-24.122-34.494c-0.124-0.183-0.256-0.361-0.395-0.533
		c-0.743-0.928-1.652-1.656-2.655-2.172c-0.983-0.508-2.081-0.826-3.244-0.901c-1.001-0.072-2.016,0.046-2.995,0.35
		c-1,0.309-1.918,0.803-2.716,1.442c-0.927,0.741-1.656,1.646-2.174,2.645c-0.515,0.988-0.835,2.093-0.912,3.264
		c-0.015,0.221-0.021,0.443-0.018,0.664v88.431c0,4.566,3.701,8.267,8.267,8.267c4.566,0,8.266-3.701,8.266-8.267v-62.301
		l15.919,22.764c1.546,2.212,4.074,3.528,6.773,3.529c0.001,0,0.001,0,0.002,0c2.698,0,5.226-1.317,6.772-3.526l15.949-22.787
		v62.321c0,4.566,3.701,8.267,8.266,8.267c4.566,0,8.267-3.701,8.267-8.267v-88.432c0.003-0.219-0.003-0.438-0.017-0.655
		C285.988,250.964,285.667,249.855,285.151,248.864z M362.763,332.96h-44.932v-80.282c0-4.566-3.701-8.266-8.267-8.266
		s-8.267,3.701-8.267,8.266v88.548c0,4.566,3.701,8.267,8.267,8.267h53.199c4.566,0,8.267-3.701,8.267-8.267
		C371.03,336.661,367.329,332.96,362.763,332.96z"></path></svg>