<svg xmlns="http://www.w3.org/2000/svg" enable-background="new 0 0 25 25" viewBox="0 0 25 25" id="javascript"><path fill="#583689" d="M24,25H1c-0.552,0-1-0.448-1-1V1c0-0.552,0.448-1,1-1h23c0.552,0,1,0.448,1,1v23C25,24.552,24.552,25,24,25z M2,23h21V2H2V23z"></path><path fill="#DE002A" d="M10 22.5c-1.538 0-2.876-1.092-3.184-2.596C6.772 19.689 6.75 19.47 6.75 19.25c0-.414.336-.75.75-.75s.75.336.75.75c0 .119.012.238.036.354C8.451 20.413 9.172 21 10 21c.965 0 1.75-.785 1.75-1.75v-7c0-.414.336-.75.75-.75s.75.336.75.75v7C13.25 21.042 11.792 22.5 10 22.5zM18.75 22.5c-1.93 0-3.5-1.346-3.5-3 0-.414.336-.75.75-.75s.75.336.75.75c0 .813.916 1.5 2 1.5s2-.687 2-1.5c0-.736-.746-1.336-2.218-1.782-2.117-.643-3.282-1.785-3.282-3.218 0-1.654 1.57-3 3.5-3s3.5 1.346 3.5 3c0 .414-.336.75-.75.75s-.75-.336-.75-.75c0-.813-.916-1.5-2-1.5s-2 .687-2 1.5c0 .965 1.39 1.531 2.218 1.782 2.713.823 3.282 2.204 3.282 3.218C22.25 21.154 20.68 22.5 18.75 22.5z"></path></svg>